<mxfile host="app.diagrams.net" modified="2021-12-15T22:38:24.424Z" agent="5.0 (Windows NT 6.1; Win64; x64) AppleWebKit/537.36 (KHTML, like Gecko) Chrome/96.0.4664.110 Safari/537.36" etag="Aq1GoXIzxvx9Hduf_JB0" version="15.9.6" type="github">
  <diagram id="aShKJb1EcJVqntHxSxEi" name="Page-1">
    <mxGraphModel dx="-166" dy="778" grid="1" gridSize="10" guides="1" tooltips="1" connect="1" arrows="1" fold="1" page="1" pageScale="1" pageWidth="827" pageHeight="1169" math="0" shadow="0">
      <root>
        <mxCell id="0" />
        <mxCell id="1" parent="0" />
        <mxCell id="8L_f6q-vc3C_Bcib5PFj-7" value="" style="edgeStyle=orthogonalEdgeStyle;rounded=0;orthogonalLoop=1;jettySize=auto;html=1;" parent="1" source="8L_f6q-vc3C_Bcib5PFj-8" target="8L_f6q-vc3C_Bcib5PFj-11" edge="1">
          <mxGeometry relative="1" as="geometry" />
        </mxCell>
        <mxCell id="8L_f6q-vc3C_Bcib5PFj-8" value="i=0" style="whiteSpace=wrap;html=1;rounded=0;" parent="1" vertex="1">
          <mxGeometry x="949" y="215" width="80" height="20" as="geometry" />
        </mxCell>
        <mxCell id="qnYledQh9NX3tpmkD9LS-4" value="" style="edgeStyle=orthogonalEdgeStyle;rounded=0;orthogonalLoop=1;jettySize=auto;html=1;" parent="1" edge="1">
          <mxGeometry relative="1" as="geometry">
            <mxPoint x="989" y="365" as="targetPoint" />
            <mxPoint x="989" y="345" as="sourcePoint" />
          </mxGeometry>
        </mxCell>
        <mxCell id="dGg0gzjNT_DizceMxnT--18" value="" style="edgeStyle=orthogonalEdgeStyle;rounded=0;orthogonalLoop=1;jettySize=auto;html=1;" parent="1" source="8L_f6q-vc3C_Bcib5PFj-11" edge="1">
          <mxGeometry relative="1" as="geometry">
            <mxPoint x="989" y="325" as="targetPoint" />
          </mxGeometry>
        </mxCell>
        <mxCell id="8L_f6q-vc3C_Bcib5PFj-11" value="i&amp;lt;N" style="rhombus;whiteSpace=wrap;html=1;rounded=0;" parent="1" vertex="1">
          <mxGeometry x="929" y="265" width="120" height="40" as="geometry" />
        </mxCell>
        <mxCell id="8L_f6q-vc3C_Bcib5PFj-13" value="" style="edgeStyle=orthogonalEdgeStyle;rounded=0;orthogonalLoop=1;jettySize=auto;html=1;entryX=0.5;entryY=0;entryDx=0;entryDy=0;startArrow=none;exitX=0.5;exitY=1;exitDx=0;exitDy=0;" parent="1" source="8L_f6q-vc3C_Bcib5PFj-18" target="8L_f6q-vc3C_Bcib5PFj-11" edge="1">
          <mxGeometry relative="1" as="geometry">
            <mxPoint x="1009" y="245" as="targetPoint" />
            <Array as="points">
              <mxPoint x="983" y="638" />
              <mxPoint x="840" y="638" />
              <mxPoint x="840" y="245" />
              <mxPoint x="989" y="245" />
            </Array>
            <mxPoint x="984" y="475" as="sourcePoint" />
          </mxGeometry>
        </mxCell>
        <mxCell id="8L_f6q-vc3C_Bcib5PFj-16" value="нет" style="text;html=1;align=center;verticalAlign=middle;resizable=0;points=[];autosize=1;strokeColor=none;fillColor=none;" parent="1" vertex="1">
          <mxGeometry x="1039.5" y="365" width="40" height="20" as="geometry" />
        </mxCell>
        <mxCell id="8L_f6q-vc3C_Bcib5PFj-18" value="i=i+1" style="rounded=0;whiteSpace=wrap;html=1;" parent="1" vertex="1">
          <mxGeometry x="948.25" y="605" width="70" height="20" as="geometry" />
        </mxCell>
        <mxCell id="8L_f6q-vc3C_Bcib5PFj-27" value="" style="edgeStyle=orthogonalEdgeStyle;rounded=0;orthogonalLoop=1;jettySize=auto;html=1;" parent="1" target="8L_f6q-vc3C_Bcib5PFj-28" edge="1">
          <mxGeometry relative="1" as="geometry">
            <mxPoint x="989.0285714285715" y="45" as="sourcePoint" />
          </mxGeometry>
        </mxCell>
        <mxCell id="ysKvt91dj6pceFcTKJD--3" value="" style="edgeStyle=orthogonalEdgeStyle;rounded=0;orthogonalLoop=1;jettySize=auto;html=1;exitX=0.496;exitY=0.839;exitDx=0;exitDy=0;exitPerimeter=0;" parent="1" source="8L_f6q-vc3C_Bcib5PFj-26" edge="1">
          <mxGeometry relative="1" as="geometry">
            <mxPoint x="989" y="215" as="targetPoint" />
          </mxGeometry>
        </mxCell>
        <mxCell id="8L_f6q-vc3C_Bcib5PFj-26" value="&quot;Original matrix: &quot;" style="shape=document;whiteSpace=wrap;html=1;boundedLbl=1;" parent="1" vertex="1">
          <mxGeometry x="949.5" y="145" width="80" height="60" as="geometry" />
        </mxCell>
        <mxCell id="ysKvt91dj6pceFcTKJD--2" value="" style="edgeStyle=orthogonalEdgeStyle;rounded=0;orthogonalLoop=1;jettySize=auto;html=1;" parent="1" source="8L_f6q-vc3C_Bcib5PFj-28" target="8L_f6q-vc3C_Bcib5PFj-26" edge="1">
          <mxGeometry relative="1" as="geometry" />
        </mxCell>
        <mxCell id="8L_f6q-vc3C_Bcib5PFj-28" value="N = 4" style="whiteSpace=wrap;html=1;" parent="1" vertex="1">
          <mxGeometry x="939" y="75" width="101" height="50" as="geometry" />
        </mxCell>
        <mxCell id="8L_f6q-vc3C_Bcib5PFj-31" value="начало" style="rounded=1;whiteSpace=wrap;html=1;" parent="1" vertex="1">
          <mxGeometry x="949" y="15" width="81" height="30" as="geometry" />
        </mxCell>
        <mxCell id="ysKvt91dj6pceFcTKJD--5" value="" style="edgeStyle=orthogonalEdgeStyle;rounded=0;orthogonalLoop=1;jettySize=auto;html=1;exitX=0.501;exitY=0.847;exitDx=0;exitDy=0;exitPerimeter=0;" parent="1" source="8L_f6q-vc3C_Bcib5PFj-32" edge="1">
          <mxGeometry relative="1" as="geometry">
            <mxPoint x="931" y="545" as="targetPoint" />
          </mxGeometry>
        </mxCell>
        <mxCell id="8L_f6q-vc3C_Bcib5PFj-32" value="matrix[i][j]&amp;nbsp;" style="shape=document;whiteSpace=wrap;html=1;boundedLbl=1;" parent="1" vertex="1">
          <mxGeometry x="873.63" y="475" width="115" height="50" as="geometry" />
        </mxCell>
        <mxCell id="qnYledQh9NX3tpmkD9LS-13" value="" style="edgeStyle=orthogonalEdgeStyle;rounded=0;orthogonalLoop=1;jettySize=auto;html=1;" parent="1" edge="1">
          <mxGeometry relative="1" as="geometry">
            <mxPoint x="989" y="365" as="targetPoint" />
            <mxPoint x="942" y="565" as="sourcePoint" />
            <Array as="points">
              <mxPoint x="942" y="585" />
              <mxPoint x="860" y="585" />
              <mxPoint x="860" y="355" />
              <mxPoint x="989" y="355" />
            </Array>
          </mxGeometry>
        </mxCell>
        <mxCell id="ysKvt91dj6pceFcTKJD--4" value="" style="edgeStyle=orthogonalEdgeStyle;rounded=0;orthogonalLoop=1;jettySize=auto;html=1;" parent="1" source="8L_f6q-vc3C_Bcib5PFj-34" edge="1">
          <mxGeometry relative="1" as="geometry">
            <mxPoint x="931" y="475" as="targetPoint" />
          </mxGeometry>
        </mxCell>
        <mxCell id="8L_f6q-vc3C_Bcib5PFj-34" value="matrix[i][j] = rand() % 100" style="whiteSpace=wrap;html=1;" parent="1" vertex="1">
          <mxGeometry x="876.13" y="425" width="110" height="30" as="geometry" />
        </mxCell>
        <mxCell id="8L_f6q-vc3C_Bcib5PFj-38" value="да" style="text;html=1;align=center;verticalAlign=middle;resizable=0;points=[];autosize=1;strokeColor=none;fillColor=none;" parent="1" vertex="1">
          <mxGeometry x="999" y="305" width="30" height="20" as="geometry" />
        </mxCell>
        <mxCell id="qnYledQh9NX3tpmkD9LS-12" value="" style="edgeStyle=orthogonalEdgeStyle;rounded=0;orthogonalLoop=1;jettySize=auto;html=1;entryX=0.5;entryY=0;entryDx=0;entryDy=0;entryPerimeter=0;" parent="1" target="qnYledQh9NX3tpmkD9LS-6" edge="1">
          <mxGeometry relative="1" as="geometry">
            <mxPoint x="989.0285714285715" y="345" as="sourcePoint" />
          </mxGeometry>
        </mxCell>
        <mxCell id="qnYledQh9NX3tpmkD9LS-7" value="" style="edgeStyle=orthogonalEdgeStyle;rounded=0;orthogonalLoop=1;jettySize=auto;html=1;" parent="1" source="qnYledQh9NX3tpmkD9LS-6" edge="1">
          <mxGeometry relative="1" as="geometry">
            <mxPoint x="908" y="425" as="targetPoint" />
            <Array as="points">
              <mxPoint x="908" y="385" />
              <mxPoint x="908" y="425" />
            </Array>
          </mxGeometry>
        </mxCell>
        <mxCell id="qnYledQh9NX3tpmkD9LS-11" value="" style="edgeStyle=orthogonalEdgeStyle;rounded=0;orthogonalLoop=1;jettySize=auto;html=1;exitX=1;exitY=0.5;exitDx=0;exitDy=0;entryX=0.588;entryY=0.03;entryDx=0;entryDy=0;entryPerimeter=0;" parent="1" source="qnYledQh9NX3tpmkD9LS-6" target="8L_f6q-vc3C_Bcib5PFj-18" edge="1">
          <mxGeometry relative="1" as="geometry">
            <mxPoint x="989" y="601" as="targetPoint" />
            <Array as="points">
              <mxPoint x="1060" y="385" />
              <mxPoint x="1060" y="588" />
              <mxPoint x="989" y="588" />
            </Array>
          </mxGeometry>
        </mxCell>
        <mxCell id="qnYledQh9NX3tpmkD9LS-6" value="j&amp;lt;N" style="rhombus;whiteSpace=wrap;html=1;rounded=0;" parent="1" vertex="1">
          <mxGeometry x="929" y="365" width="120" height="40" as="geometry" />
        </mxCell>
        <mxCell id="qnYledQh9NX3tpmkD9LS-9" value="да" style="text;html=1;align=center;verticalAlign=middle;resizable=0;points=[];autosize=1;strokeColor=none;fillColor=none;" parent="1" vertex="1">
          <mxGeometry x="898.3800000000001" y="365" width="30" height="20" as="geometry" />
        </mxCell>
        <mxCell id="qnYledQh9NX3tpmkD9LS-15" value="" style="edgeStyle=orthogonalEdgeStyle;rounded=0;orthogonalLoop=1;jettySize=auto;html=1;exitX=1;exitY=0.5;exitDx=0;exitDy=0;" parent="1" source="8L_f6q-vc3C_Bcib5PFj-11" edge="1">
          <mxGeometry relative="1" as="geometry">
            <mxPoint x="1098" y="285" as="targetPoint" />
          </mxGeometry>
        </mxCell>
        <mxCell id="qnYledQh9NX3tpmkD9LS-10" value="нет" style="text;html=1;align=center;verticalAlign=middle;resizable=0;points=[];autosize=1;strokeColor=none;fillColor=none;" parent="1" vertex="1">
          <mxGeometry x="1049" y="265" width="40" height="20" as="geometry" />
        </mxCell>
        <mxCell id="qnYledQh9NX3tpmkD9LS-17" value="1" style="ellipse;whiteSpace=wrap;html=1;aspect=fixed;" parent="1" vertex="1">
          <mxGeometry x="1098" y="270" width="30" height="30" as="geometry" />
        </mxCell>
        <mxCell id="qnYledQh9NX3tpmkD9LS-32" value="j=j+1" style="whiteSpace=wrap;html=1;" parent="1" vertex="1">
          <mxGeometry x="899.51" y="545" width="80" height="20" as="geometry" />
        </mxCell>
        <mxCell id="IL574nIS1ITczs5gziKt-34" value="" style="edgeStyle=orthogonalEdgeStyle;rounded=0;orthogonalLoop=1;jettySize=auto;html=1;entryX=0.5;entryY=0;entryDx=0;entryDy=0;" parent="1" edge="1">
          <mxGeometry relative="1" as="geometry">
            <mxPoint x="1003.51" y="863" as="targetPoint" />
            <Array as="points">
              <mxPoint x="1003.51" y="1100" />
              <mxPoint x="871.51" y="1100" />
              <mxPoint x="871.51" y="840" />
              <mxPoint x="1003.51" y="840" />
            </Array>
          </mxGeometry>
        </mxCell>
        <mxCell id="dGg0gzjNT_DizceMxnT--4" value="1" style="text;html=1;strokeColor=none;fillColor=none;align=center;verticalAlign=middle;whiteSpace=wrap;rounded=0;" parent="1" vertex="1">
          <mxGeometry x="1038" y="15" width="60" height="30" as="geometry" />
        </mxCell>
        <mxCell id="dGg0gzjNT_DizceMxnT--5" value="2" style="text;html=1;align=center;verticalAlign=middle;resizable=0;points=[];autosize=1;strokeColor=none;fillColor=none;" parent="1" vertex="1">
          <mxGeometry x="1058" y="85" width="20" height="20" as="geometry" />
        </mxCell>
        <mxCell id="dGg0gzjNT_DizceMxnT--6" value="3" style="text;html=1;align=center;verticalAlign=middle;resizable=0;points=[];autosize=1;strokeColor=none;fillColor=none;" parent="1" vertex="1">
          <mxGeometry x="1058" y="155" width="20" height="20" as="geometry" />
        </mxCell>
        <mxCell id="dGg0gzjNT_DizceMxnT--7" value="4" style="text;html=1;align=center;verticalAlign=middle;resizable=0;points=[];autosize=1;strokeColor=none;fillColor=none;" parent="1" vertex="1">
          <mxGeometry x="1058" y="215" width="20" height="20" as="geometry" />
        </mxCell>
        <mxCell id="dGg0gzjNT_DizceMxnT--8" value="5" style="text;html=1;align=center;verticalAlign=middle;resizable=0;points=[];autosize=1;strokeColor=none;fillColor=none;" parent="1" vertex="1">
          <mxGeometry x="898.38" y="275" width="20" height="20" as="geometry" />
        </mxCell>
        <mxCell id="dGg0gzjNT_DizceMxnT--9" value="6" style="text;html=1;align=center;verticalAlign=middle;resizable=0;points=[];autosize=1;strokeColor=none;fillColor=none;" parent="1" vertex="1">
          <mxGeometry x="1038" y="325" width="20" height="20" as="geometry" />
        </mxCell>
        <mxCell id="dGg0gzjNT_DizceMxnT--10" value="7.1" style="text;html=1;align=center;verticalAlign=middle;resizable=0;points=[];autosize=1;strokeColor=none;fillColor=none;" parent="1" vertex="1">
          <mxGeometry x="985" y="425" width="30" height="20" as="geometry" />
        </mxCell>
        <mxCell id="dGg0gzjNT_DizceMxnT--11" value="7.2" style="text;html=1;align=center;verticalAlign=middle;resizable=0;points=[];autosize=1;strokeColor=none;fillColor=none;" parent="1" vertex="1">
          <mxGeometry x="985" y="475" width="30" height="20" as="geometry" />
        </mxCell>
        <mxCell id="dGg0gzjNT_DizceMxnT--12" value="7.3" style="text;html=1;align=center;verticalAlign=middle;resizable=0;points=[];autosize=1;strokeColor=none;fillColor=none;" parent="1" vertex="1">
          <mxGeometry x="985" y="545" width="30" height="20" as="geometry" />
        </mxCell>
        <mxCell id="dGg0gzjNT_DizceMxnT--15" value="8" style="text;html=1;align=center;verticalAlign=middle;resizable=0;points=[];autosize=1;strokeColor=none;fillColor=none;" parent="1" vertex="1">
          <mxGeometry x="1030" y="605" width="20" height="20" as="geometry" />
        </mxCell>
        <mxCell id="dGg0gzjNT_DizceMxnT--17" value="j=0" style="whiteSpace=wrap;html=1;rounded=0;" parent="1" vertex="1">
          <mxGeometry x="950" y="325" width="80" height="20" as="geometry" />
        </mxCell>
        <mxCell id="wO3dEOBaHigZstkqX0X5-5" value="" style="edgeStyle=orthogonalEdgeStyle;rounded=0;orthogonalLoop=1;jettySize=auto;html=1;" edge="1" parent="1" source="wO3dEOBaHigZstkqX0X5-1" target="wO3dEOBaHigZstkqX0X5-4">
          <mxGeometry relative="1" as="geometry" />
        </mxCell>
        <mxCell id="wO3dEOBaHigZstkqX0X5-1" value="k=1" style="whiteSpace=wrap;html=1;direction=west;" vertex="1" parent="1">
          <mxGeometry x="1243" y="54" width="50" height="20" as="geometry" />
        </mxCell>
        <mxCell id="wO3dEOBaHigZstkqX0X5-3" value="" style="edgeStyle=orthogonalEdgeStyle;rounded=0;orthogonalLoop=1;jettySize=auto;html=1;" edge="1" parent="1" source="wO3dEOBaHigZstkqX0X5-2" target="wO3dEOBaHigZstkqX0X5-1">
          <mxGeometry relative="1" as="geometry" />
        </mxCell>
        <mxCell id="wO3dEOBaHigZstkqX0X5-2" value="1" style="ellipse;whiteSpace=wrap;html=1;aspect=fixed;" vertex="1" parent="1">
          <mxGeometry x="1253" width="30" height="30" as="geometry" />
        </mxCell>
        <mxCell id="wO3dEOBaHigZstkqX0X5-7" value="" style="edgeStyle=orthogonalEdgeStyle;rounded=0;orthogonalLoop=1;jettySize=auto;html=1;entryX=0.5;entryY=1;entryDx=0;entryDy=0;" edge="1" parent="1" source="wO3dEOBaHigZstkqX0X5-4" target="wO3dEOBaHigZstkqX0X5-8">
          <mxGeometry relative="1" as="geometry">
            <mxPoint x="1268" y="210" as="targetPoint" />
          </mxGeometry>
        </mxCell>
        <mxCell id="wO3dEOBaHigZstkqX0X5-32" style="edgeStyle=orthogonalEdgeStyle;rounded=0;orthogonalLoop=1;jettySize=auto;html=1;startArrow=none;" edge="1" parent="1" source="wO3dEOBaHigZstkqX0X5-33">
          <mxGeometry relative="1" as="geometry">
            <mxPoint x="1268" y="100" as="targetPoint" />
            <Array as="points">
              <mxPoint x="1143" y="745" />
              <mxPoint x="1143" y="80" />
              <mxPoint x="1268" y="80" />
            </Array>
          </mxGeometry>
        </mxCell>
        <mxCell id="wO3dEOBaHigZstkqX0X5-44" value="" style="edgeStyle=orthogonalEdgeStyle;rounded=0;orthogonalLoop=1;jettySize=auto;html=1;" edge="1" parent="1" source="wO3dEOBaHigZstkqX0X5-4">
          <mxGeometry relative="1" as="geometry">
            <mxPoint x="1348" y="120" as="targetPoint" />
          </mxGeometry>
        </mxCell>
        <mxCell id="wO3dEOBaHigZstkqX0X5-4" value="k&amp;lt;N" style="rhombus;whiteSpace=wrap;html=1;" vertex="1" parent="1">
          <mxGeometry x="1213" y="100" width="110" height="40" as="geometry" />
        </mxCell>
        <mxCell id="wO3dEOBaHigZstkqX0X5-11" value="" style="edgeStyle=orthogonalEdgeStyle;rounded=0;orthogonalLoop=1;jettySize=auto;html=1;entryX=0.5;entryY=0;entryDx=0;entryDy=0;" edge="1" parent="1" source="wO3dEOBaHigZstkqX0X5-8" target="wO3dEOBaHigZstkqX0X5-10">
          <mxGeometry relative="1" as="geometry">
            <mxPoint x="1268" y="220" as="targetPoint" />
          </mxGeometry>
        </mxCell>
        <mxCell id="wO3dEOBaHigZstkqX0X5-8" value="i=0" style="whiteSpace=wrap;html=1;direction=west;" vertex="1" parent="1">
          <mxGeometry x="1243" y="160" width="50" height="20" as="geometry" />
        </mxCell>
        <mxCell id="wO3dEOBaHigZstkqX0X5-13" value="" style="edgeStyle=orthogonalEdgeStyle;rounded=0;orthogonalLoop=1;jettySize=auto;html=1;" edge="1" parent="1" source="wO3dEOBaHigZstkqX0X5-10" target="wO3dEOBaHigZstkqX0X5-12">
          <mxGeometry relative="1" as="geometry" />
        </mxCell>
        <mxCell id="wO3dEOBaHigZstkqX0X5-29" style="edgeStyle=orthogonalEdgeStyle;rounded=0;orthogonalLoop=1;jettySize=auto;html=1;startArrow=none;" edge="1" parent="1" source="wO3dEOBaHigZstkqX0X5-30">
          <mxGeometry relative="1" as="geometry">
            <mxPoint x="1268" y="200" as="targetPoint" />
            <Array as="points">
              <mxPoint x="1153" y="685" />
              <mxPoint x="1153" y="190" />
              <mxPoint x="1268" y="190" />
            </Array>
          </mxGeometry>
        </mxCell>
        <mxCell id="wO3dEOBaHigZstkqX0X5-10" value="i&amp;lt;N-1" style="rhombus;whiteSpace=wrap;html=1;" vertex="1" parent="1">
          <mxGeometry x="1213" y="200" width="110" height="40" as="geometry" />
        </mxCell>
        <mxCell id="wO3dEOBaHigZstkqX0X5-15" value="" style="edgeStyle=orthogonalEdgeStyle;rounded=0;orthogonalLoop=1;jettySize=auto;html=1;" edge="1" parent="1" source="wO3dEOBaHigZstkqX0X5-12" target="wO3dEOBaHigZstkqX0X5-14">
          <mxGeometry relative="1" as="geometry" />
        </mxCell>
        <mxCell id="wO3dEOBaHigZstkqX0X5-12" value="j=0" style="whiteSpace=wrap;html=1;" vertex="1" parent="1">
          <mxGeometry x="1243" y="260" width="50" height="20" as="geometry" />
        </mxCell>
        <mxCell id="wO3dEOBaHigZstkqX0X5-17" value="" style="edgeStyle=orthogonalEdgeStyle;rounded=0;orthogonalLoop=1;jettySize=auto;html=1;" edge="1" parent="1" source="wO3dEOBaHigZstkqX0X5-14" target="wO3dEOBaHigZstkqX0X5-16">
          <mxGeometry relative="1" as="geometry" />
        </mxCell>
        <mxCell id="wO3dEOBaHigZstkqX0X5-14" value="j&amp;lt;N-i-1" style="rhombus;whiteSpace=wrap;html=1;" vertex="1" parent="1">
          <mxGeometry x="1213" y="300" width="110" height="40" as="geometry" />
        </mxCell>
        <mxCell id="wO3dEOBaHigZstkqX0X5-19" value="" style="edgeStyle=orthogonalEdgeStyle;rounded=0;orthogonalLoop=1;jettySize=auto;html=1;" edge="1" parent="1" source="wO3dEOBaHigZstkqX0X5-16" target="wO3dEOBaHigZstkqX0X5-18">
          <mxGeometry relative="1" as="geometry" />
        </mxCell>
        <mxCell id="wO3dEOBaHigZstkqX0X5-39" style="edgeStyle=orthogonalEdgeStyle;rounded=0;orthogonalLoop=1;jettySize=auto;html=1;entryX=0.5;entryY=0;entryDx=0;entryDy=0;" edge="1" parent="1" source="wO3dEOBaHigZstkqX0X5-16" target="wO3dEOBaHigZstkqX0X5-27">
          <mxGeometry relative="1" as="geometry">
            <mxPoint x="1268" y="600" as="targetPoint" />
            <Array as="points">
              <mxPoint x="1383" y="380" />
              <mxPoint x="1383" y="590" />
              <mxPoint x="1268" y="590" />
            </Array>
          </mxGeometry>
        </mxCell>
        <mxCell id="wO3dEOBaHigZstkqX0X5-16" value="matrix[j][k] &amp;gt; matrix[j+1][k]" style="rhombus;whiteSpace=wrap;html=1;" vertex="1" parent="1">
          <mxGeometry x="1173" y="360" width="190" height="40" as="geometry" />
        </mxCell>
        <mxCell id="wO3dEOBaHigZstkqX0X5-21" value="" style="edgeStyle=orthogonalEdgeStyle;rounded=0;orthogonalLoop=1;jettySize=auto;html=1;" edge="1" parent="1" source="wO3dEOBaHigZstkqX0X5-18" target="wO3dEOBaHigZstkqX0X5-20">
          <mxGeometry relative="1" as="geometry" />
        </mxCell>
        <mxCell id="wO3dEOBaHigZstkqX0X5-18" value="temp = matrix[j][k]" style="whiteSpace=wrap;html=1;" vertex="1" parent="1">
          <mxGeometry x="1213" y="430" width="110" height="30" as="geometry" />
        </mxCell>
        <mxCell id="wO3dEOBaHigZstkqX0X5-23" value="" style="edgeStyle=orthogonalEdgeStyle;rounded=0;orthogonalLoop=1;jettySize=auto;html=1;" edge="1" parent="1" source="wO3dEOBaHigZstkqX0X5-20" target="wO3dEOBaHigZstkqX0X5-22">
          <mxGeometry relative="1" as="geometry" />
        </mxCell>
        <mxCell id="wO3dEOBaHigZstkqX0X5-20" value="matrix[j][k] = matrix[j+1][k]" style="whiteSpace=wrap;html=1;" vertex="1" parent="1">
          <mxGeometry x="1213" y="490" width="110" height="30" as="geometry" />
        </mxCell>
        <mxCell id="wO3dEOBaHigZstkqX0X5-25" value="" style="edgeStyle=orthogonalEdgeStyle;rounded=0;orthogonalLoop=1;jettySize=auto;html=1;entryX=0.5;entryY=0;entryDx=0;entryDy=0;" edge="1" parent="1" target="wO3dEOBaHigZstkqX0X5-14">
          <mxGeometry relative="1" as="geometry">
            <mxPoint x="1268" y="640" as="sourcePoint" />
            <mxPoint x="1113" y="290" as="targetPoint" />
            <Array as="points">
              <mxPoint x="1268" y="650" />
              <mxPoint x="1163" y="650" />
              <mxPoint x="1163" y="290" />
              <mxPoint x="1268" y="290" />
            </Array>
          </mxGeometry>
        </mxCell>
        <mxCell id="wO3dEOBaHigZstkqX0X5-28" value="" style="edgeStyle=orthogonalEdgeStyle;rounded=0;orthogonalLoop=1;jettySize=auto;html=1;" edge="1" parent="1" source="wO3dEOBaHigZstkqX0X5-22" target="wO3dEOBaHigZstkqX0X5-27">
          <mxGeometry relative="1" as="geometry">
            <Array as="points">
              <mxPoint x="1253" y="590" />
              <mxPoint x="1268" y="590" />
            </Array>
          </mxGeometry>
        </mxCell>
        <mxCell id="wO3dEOBaHigZstkqX0X5-22" value="matrix[j+1][k] = temp" style="whiteSpace=wrap;html=1;" vertex="1" parent="1">
          <mxGeometry x="1203" y="550" width="130" height="30" as="geometry" />
        </mxCell>
        <mxCell id="wO3dEOBaHigZstkqX0X5-27" value="j++" style="whiteSpace=wrap;html=1;" vertex="1" parent="1">
          <mxGeometry x="1243" y="610" width="50" height="30" as="geometry" />
        </mxCell>
        <mxCell id="wO3dEOBaHigZstkqX0X5-30" value="i++" style="whiteSpace=wrap;html=1;" vertex="1" parent="1">
          <mxGeometry x="1203" y="670" width="130" height="30" as="geometry" />
        </mxCell>
        <mxCell id="wO3dEOBaHigZstkqX0X5-31" value="" style="edgeStyle=orthogonalEdgeStyle;rounded=0;orthogonalLoop=1;jettySize=auto;html=1;endArrow=none;entryX=1;entryY=0.5;entryDx=0;entryDy=0;" edge="1" parent="1" target="wO3dEOBaHigZstkqX0X5-30">
          <mxGeometry relative="1" as="geometry">
            <mxPoint x="1268" y="160" as="targetPoint" />
            <mxPoint x="1323" y="320" as="sourcePoint" />
            <Array as="points">
              <mxPoint x="1393" y="320" />
              <mxPoint x="1393" y="685" />
            </Array>
          </mxGeometry>
        </mxCell>
        <mxCell id="wO3dEOBaHigZstkqX0X5-33" value="k=k+2" style="whiteSpace=wrap;html=1;" vertex="1" parent="1">
          <mxGeometry x="1203" y="730" width="130" height="30" as="geometry" />
        </mxCell>
        <mxCell id="wO3dEOBaHigZstkqX0X5-34" value="" style="edgeStyle=orthogonalEdgeStyle;rounded=0;orthogonalLoop=1;jettySize=auto;html=1;endArrow=none;entryX=1;entryY=0.5;entryDx=0;entryDy=0;" edge="1" parent="1" target="wO3dEOBaHigZstkqX0X5-33">
          <mxGeometry relative="1" as="geometry">
            <mxPoint x="1268" y="100" as="targetPoint" />
            <mxPoint x="1323" y="220" as="sourcePoint" />
            <Array as="points">
              <mxPoint x="1403" y="220" />
              <mxPoint x="1403" y="745" />
            </Array>
          </mxGeometry>
        </mxCell>
        <mxCell id="wO3dEOBaHigZstkqX0X5-35" value="да" style="text;html=1;align=center;verticalAlign=middle;resizable=0;points=[];autosize=1;strokeColor=none;fillColor=none;" vertex="1" parent="1">
          <mxGeometry x="1273" y="140" width="30" height="20" as="geometry" />
        </mxCell>
        <mxCell id="wO3dEOBaHigZstkqX0X5-36" value="да" style="text;html=1;align=center;verticalAlign=middle;resizable=0;points=[];autosize=1;strokeColor=none;fillColor=none;" vertex="1" parent="1">
          <mxGeometry x="1273" y="340" width="30" height="20" as="geometry" />
        </mxCell>
        <mxCell id="wO3dEOBaHigZstkqX0X5-37" value="да" style="text;html=1;align=center;verticalAlign=middle;resizable=0;points=[];autosize=1;strokeColor=none;fillColor=none;" vertex="1" parent="1">
          <mxGeometry x="1273" y="240" width="30" height="20" as="geometry" />
        </mxCell>
        <mxCell id="wO3dEOBaHigZstkqX0X5-38" value="да" style="text;html=1;align=center;verticalAlign=middle;resizable=0;points=[];autosize=1;strokeColor=none;fillColor=none;" vertex="1" parent="1">
          <mxGeometry x="1273" y="400" width="30" height="20" as="geometry" />
        </mxCell>
        <mxCell id="wO3dEOBaHigZstkqX0X5-40" value="нет" style="text;html=1;align=center;verticalAlign=middle;resizable=0;points=[];autosize=1;strokeColor=none;fillColor=none;" vertex="1" parent="1">
          <mxGeometry x="1353" y="360" width="30" height="20" as="geometry" />
        </mxCell>
        <mxCell id="wO3dEOBaHigZstkqX0X5-41" value="нет" style="text;html=1;align=center;verticalAlign=middle;resizable=0;points=[];autosize=1;strokeColor=none;fillColor=none;" vertex="1" parent="1">
          <mxGeometry x="1323" y="300" width="30" height="20" as="geometry" />
        </mxCell>
        <mxCell id="wO3dEOBaHigZstkqX0X5-42" value="нет" style="text;html=1;align=center;verticalAlign=middle;resizable=0;points=[];autosize=1;strokeColor=none;fillColor=none;" vertex="1" parent="1">
          <mxGeometry x="1313" y="200" width="30" height="20" as="geometry" />
        </mxCell>
        <mxCell id="wO3dEOBaHigZstkqX0X5-45" value="нет" style="text;html=1;align=center;verticalAlign=middle;resizable=0;points=[];autosize=1;strokeColor=none;fillColor=none;" vertex="1" parent="1">
          <mxGeometry x="1318" y="100" width="30" height="20" as="geometry" />
        </mxCell>
        <mxCell id="wO3dEOBaHigZstkqX0X5-46" value="9" style="text;html=1;align=center;verticalAlign=middle;resizable=0;points=[];autosize=1;strokeColor=none;fillColor=none;" vertex="1" parent="1">
          <mxGeometry x="1293" y="5" width="20" height="20" as="geometry" />
        </mxCell>
        <mxCell id="wO3dEOBaHigZstkqX0X5-47" value="10" style="text;html=1;align=center;verticalAlign=middle;resizable=0;points=[];autosize=1;strokeColor=none;fillColor=none;" vertex="1" parent="1">
          <mxGeometry x="1293" y="54" width="30" height="20" as="geometry" />
        </mxCell>
        <mxCell id="wO3dEOBaHigZstkqX0X5-48" value="11" style="text;html=1;align=center;verticalAlign=middle;resizable=0;points=[];autosize=1;strokeColor=none;fillColor=none;" vertex="1" parent="1">
          <mxGeometry x="1178" y="110" width="30" height="20" as="geometry" />
        </mxCell>
        <mxCell id="wO3dEOBaHigZstkqX0X5-49" value="11.1" style="text;html=1;align=center;verticalAlign=middle;resizable=0;points=[];autosize=1;strokeColor=none;fillColor=none;" vertex="1" parent="1">
          <mxGeometry x="1173" y="160" width="40" height="20" as="geometry" />
        </mxCell>
        <mxCell id="wO3dEOBaHigZstkqX0X5-50" value="12" style="text;html=1;align=center;verticalAlign=middle;resizable=0;points=[];autosize=1;strokeColor=none;fillColor=none;" vertex="1" parent="1">
          <mxGeometry x="1178" y="210" width="30" height="20" as="geometry" />
        </mxCell>
        <mxCell id="wO3dEOBaHigZstkqX0X5-51" value="12.1" style="text;html=1;align=center;verticalAlign=middle;resizable=0;points=[];autosize=1;strokeColor=none;fillColor=none;" vertex="1" parent="1">
          <mxGeometry x="1178" y="255" width="40" height="20" as="geometry" />
        </mxCell>
        <mxCell id="wO3dEOBaHigZstkqX0X5-52" value="13" style="text;html=1;align=center;verticalAlign=middle;resizable=0;points=[];autosize=1;strokeColor=none;fillColor=none;" vertex="1" parent="1">
          <mxGeometry x="1183" y="310" width="30" height="20" as="geometry" />
        </mxCell>
        <mxCell id="wO3dEOBaHigZstkqX0X5-53" value="14" style="text;html=1;align=center;verticalAlign=middle;resizable=0;points=[];autosize=1;strokeColor=none;fillColor=none;" vertex="1" parent="1">
          <mxGeometry x="1168" y="390" width="30" height="20" as="geometry" />
        </mxCell>
        <mxCell id="wO3dEOBaHigZstkqX0X5-54" value="14.1" style="text;html=1;align=center;verticalAlign=middle;resizable=0;points=[];autosize=1;strokeColor=none;fillColor=none;" vertex="1" parent="1">
          <mxGeometry x="1163" y="430" width="40" height="20" as="geometry" />
        </mxCell>
        <mxCell id="wO3dEOBaHigZstkqX0X5-55" value="14.2" style="text;html=1;align=center;verticalAlign=middle;resizable=0;points=[];autosize=1;strokeColor=none;fillColor=none;" vertex="1" parent="1">
          <mxGeometry x="1163" y="490" width="40" height="20" as="geometry" />
        </mxCell>
        <mxCell id="wO3dEOBaHigZstkqX0X5-56" value="14.3" style="text;html=1;align=center;verticalAlign=middle;resizable=0;points=[];autosize=1;strokeColor=none;fillColor=none;" vertex="1" parent="1">
          <mxGeometry x="1163" y="550" width="40" height="20" as="geometry" />
        </mxCell>
        <mxCell id="wO3dEOBaHigZstkqX0X5-57" value="14.4" style="text;html=1;align=center;verticalAlign=middle;resizable=0;points=[];autosize=1;strokeColor=none;fillColor=none;" vertex="1" parent="1">
          <mxGeometry x="1203" y="610" width="40" height="20" as="geometry" />
        </mxCell>
        <mxCell id="wO3dEOBaHigZstkqX0X5-58" value="15" style="text;html=1;align=center;verticalAlign=middle;resizable=0;points=[];autosize=1;strokeColor=none;fillColor=none;" vertex="1" parent="1">
          <mxGeometry x="1168" y="660" width="30" height="20" as="geometry" />
        </mxCell>
        <mxCell id="wO3dEOBaHigZstkqX0X5-59" value="16" style="text;html=1;align=center;verticalAlign=middle;resizable=0;points=[];autosize=1;strokeColor=none;fillColor=none;" vertex="1" parent="1">
          <mxGeometry x="1168" y="720" width="30" height="20" as="geometry" />
        </mxCell>
        <mxCell id="wO3dEOBaHigZstkqX0X5-62" value="2" style="ellipse;whiteSpace=wrap;html=1;aspect=fixed;" vertex="1" parent="1">
          <mxGeometry x="1348" y="105" width="30" height="30" as="geometry" />
        </mxCell>
        <mxCell id="wO3dEOBaHigZstkqX0X5-65" value="" style="edgeStyle=orthogonalEdgeStyle;rounded=0;orthogonalLoop=1;jettySize=auto;html=1;entryX=0.5;entryY=0;entryDx=0;entryDy=0;" edge="1" parent="1" source="wO3dEOBaHigZstkqX0X5-63" target="wO3dEOBaHigZstkqX0X5-66">
          <mxGeometry relative="1" as="geometry">
            <mxPoint x="1525" y="142" as="targetPoint" />
          </mxGeometry>
        </mxCell>
        <mxCell id="wO3dEOBaHigZstkqX0X5-63" value="2" style="ellipse;whiteSpace=wrap;html=1;aspect=fixed;" vertex="1" parent="1">
          <mxGeometry x="1510" y="47" width="30" height="30" as="geometry" />
        </mxCell>
        <mxCell id="wO3dEOBaHigZstkqX0X5-68" value="" style="edgeStyle=orthogonalEdgeStyle;rounded=0;orthogonalLoop=1;jettySize=auto;html=1;exitX=0.49;exitY=0.843;exitDx=0;exitDy=0;exitPerimeter=0;" edge="1" parent="1" source="wO3dEOBaHigZstkqX0X5-66">
          <mxGeometry relative="1" as="geometry">
            <mxPoint x="1525" y="192" as="targetPoint" />
          </mxGeometry>
        </mxCell>
        <mxCell id="wO3dEOBaHigZstkqX0X5-66" value="&quot;sorted matrix:&quot;" style="shape=document;whiteSpace=wrap;html=1;boundedLbl=1;" vertex="1" parent="1">
          <mxGeometry x="1488.75" y="107" width="72.5" height="50" as="geometry" />
        </mxCell>
        <mxCell id="wO3dEOBaHigZstkqX0X5-71" value="" style="edgeStyle=orthogonalEdgeStyle;rounded=0;orthogonalLoop=1;jettySize=auto;html=1;" edge="1" parent="1" source="wO3dEOBaHigZstkqX0X5-69" target="wO3dEOBaHigZstkqX0X5-70">
          <mxGeometry relative="1" as="geometry" />
        </mxCell>
        <mxCell id="wO3dEOBaHigZstkqX0X5-69" value="i=0" style="whiteSpace=wrap;html=1;direction=west;" vertex="1" parent="1">
          <mxGeometry x="1500" y="192" width="50" height="20" as="geometry" />
        </mxCell>
        <mxCell id="wO3dEOBaHigZstkqX0X5-73" value="" style="edgeStyle=orthogonalEdgeStyle;rounded=0;orthogonalLoop=1;jettySize=auto;html=1;entryX=0.5;entryY=1;entryDx=0;entryDy=0;" edge="1" parent="1" source="wO3dEOBaHigZstkqX0X5-70" target="wO3dEOBaHigZstkqX0X5-74">
          <mxGeometry relative="1" as="geometry">
            <mxPoint x="1525" y="347" as="targetPoint" />
          </mxGeometry>
        </mxCell>
        <mxCell id="wO3dEOBaHigZstkqX0X5-80" style="edgeStyle=orthogonalEdgeStyle;rounded=0;orthogonalLoop=1;jettySize=auto;html=1;" edge="1" parent="1" source="wO3dEOBaHigZstkqX0X5-70" target="wO3dEOBaHigZstkqX0X5-91">
          <mxGeometry relative="1" as="geometry">
            <mxPoint x="1530" y="587" as="targetPoint" />
            <Array as="points">
              <mxPoint x="1610" y="257" />
              <mxPoint x="1610" y="537" />
              <mxPoint x="1525" y="537" />
            </Array>
          </mxGeometry>
        </mxCell>
        <mxCell id="wO3dEOBaHigZstkqX0X5-70" value="i&amp;lt;N" style="rhombus;whiteSpace=wrap;html=1;" vertex="1" parent="1">
          <mxGeometry x="1480" y="237" width="90" height="40" as="geometry" />
        </mxCell>
        <mxCell id="wO3dEOBaHigZstkqX0X5-77" value="" style="edgeStyle=orthogonalEdgeStyle;rounded=0;orthogonalLoop=1;jettySize=auto;html=1;" edge="1" parent="1" source="wO3dEOBaHigZstkqX0X5-74" target="wO3dEOBaHigZstkqX0X5-76">
          <mxGeometry relative="1" as="geometry" />
        </mxCell>
        <mxCell id="wO3dEOBaHigZstkqX0X5-74" value="j=0" style="whiteSpace=wrap;html=1;direction=west;" vertex="1" parent="1">
          <mxGeometry x="1500" y="297" width="50" height="20" as="geometry" />
        </mxCell>
        <mxCell id="wO3dEOBaHigZstkqX0X5-79" value="" style="edgeStyle=orthogonalEdgeStyle;rounded=0;orthogonalLoop=1;jettySize=auto;html=1;" edge="1" parent="1" source="wO3dEOBaHigZstkqX0X5-76" target="wO3dEOBaHigZstkqX0X5-78">
          <mxGeometry relative="1" as="geometry" />
        </mxCell>
        <mxCell id="wO3dEOBaHigZstkqX0X5-81" style="edgeStyle=orthogonalEdgeStyle;rounded=0;orthogonalLoop=1;jettySize=auto;html=1;entryX=0.5;entryY=0;entryDx=0;entryDy=0;startArrow=none;" edge="1" parent="1" source="wO3dEOBaHigZstkqX0X5-89" target="wO3dEOBaHigZstkqX0X5-70">
          <mxGeometry relative="1" as="geometry">
            <mxPoint x="1550" y="227" as="targetPoint" />
            <Array as="points">
              <mxPoint x="1440" y="517" />
              <mxPoint x="1440" y="217" />
              <mxPoint x="1525" y="217" />
            </Array>
          </mxGeometry>
        </mxCell>
        <mxCell id="wO3dEOBaHigZstkqX0X5-76" value="j&amp;lt;N" style="rhombus;whiteSpace=wrap;html=1;" vertex="1" parent="1">
          <mxGeometry x="1480" y="337" width="90" height="40" as="geometry" />
        </mxCell>
        <mxCell id="wO3dEOBaHigZstkqX0X5-82" style="edgeStyle=orthogonalEdgeStyle;rounded=0;orthogonalLoop=1;jettySize=auto;html=1;entryX=0.5;entryY=0;entryDx=0;entryDy=0;exitX=0.5;exitY=1;exitDx=0;exitDy=0;" edge="1" parent="1" source="wO3dEOBaHigZstkqX0X5-83" target="wO3dEOBaHigZstkqX0X5-76">
          <mxGeometry relative="1" as="geometry">
            <mxPoint x="1525" y="297" as="targetPoint" />
            <mxPoint x="1525" y="497" as="sourcePoint" />
            <Array as="points">
              <mxPoint x="1525" y="497" />
              <mxPoint x="1460" y="497" />
              <mxPoint x="1460" y="327" />
              <mxPoint x="1525" y="327" />
            </Array>
          </mxGeometry>
        </mxCell>
        <mxCell id="wO3dEOBaHigZstkqX0X5-84" value="" style="edgeStyle=orthogonalEdgeStyle;rounded=0;orthogonalLoop=1;jettySize=auto;html=1;exitX=0.495;exitY=0.853;exitDx=0;exitDy=0;exitPerimeter=0;" edge="1" parent="1" source="wO3dEOBaHigZstkqX0X5-78" target="wO3dEOBaHigZstkqX0X5-83">
          <mxGeometry relative="1" as="geometry" />
        </mxCell>
        <mxCell id="wO3dEOBaHigZstkqX0X5-78" value="matrix[i][j]" style="shape=document;whiteSpace=wrap;html=1;boundedLbl=1;" vertex="1" parent="1">
          <mxGeometry x="1487.5" y="402" width="75" height="45" as="geometry" />
        </mxCell>
        <mxCell id="wO3dEOBaHigZstkqX0X5-83" value="j++" style="whiteSpace=wrap;html=1;" vertex="1" parent="1">
          <mxGeometry x="1500" y="472" width="50" height="20" as="geometry" />
        </mxCell>
        <mxCell id="wO3dEOBaHigZstkqX0X5-85" value="да" style="text;html=1;align=center;verticalAlign=middle;resizable=0;points=[];autosize=1;strokeColor=none;fillColor=none;" vertex="1" parent="1">
          <mxGeometry x="1530" y="277" width="30" height="20" as="geometry" />
        </mxCell>
        <mxCell id="wO3dEOBaHigZstkqX0X5-86" value="да" style="text;html=1;align=center;verticalAlign=middle;resizable=0;points=[];autosize=1;strokeColor=none;fillColor=none;" vertex="1" parent="1">
          <mxGeometry x="1520" y="382" width="30" height="20" as="geometry" />
        </mxCell>
        <mxCell id="wO3dEOBaHigZstkqX0X5-87" value="нет" style="text;html=1;align=center;verticalAlign=middle;resizable=0;points=[];autosize=1;strokeColor=none;fillColor=none;" vertex="1" parent="1">
          <mxGeometry x="1562.5" y="337" width="30" height="20" as="geometry" />
        </mxCell>
        <mxCell id="wO3dEOBaHigZstkqX0X5-88" value="нет" style="text;html=1;align=center;verticalAlign=middle;resizable=0;points=[];autosize=1;strokeColor=none;fillColor=none;" vertex="1" parent="1">
          <mxGeometry x="1562.5" y="237" width="30" height="20" as="geometry" />
        </mxCell>
        <mxCell id="wO3dEOBaHigZstkqX0X5-89" value="i++" style="whiteSpace=wrap;html=1;" vertex="1" parent="1">
          <mxGeometry x="1500" y="507" width="50" height="20" as="geometry" />
        </mxCell>
        <mxCell id="wO3dEOBaHigZstkqX0X5-90" value="" style="edgeStyle=orthogonalEdgeStyle;rounded=0;orthogonalLoop=1;jettySize=auto;html=1;endArrow=none;" edge="1" parent="1" source="wO3dEOBaHigZstkqX0X5-76">
          <mxGeometry relative="1" as="geometry">
            <mxPoint x="1550" y="517" as="targetPoint" />
            <mxPoint x="1570" y="357" as="sourcePoint" />
            <Array as="points">
              <mxPoint x="1590" y="357" />
              <mxPoint x="1590" y="517" />
            </Array>
          </mxGeometry>
        </mxCell>
        <mxCell id="wO3dEOBaHigZstkqX0X5-91" value="конец" style="rounded=1;whiteSpace=wrap;html=1;" vertex="1" parent="1">
          <mxGeometry x="1485" y="557" width="75" height="27.5" as="geometry" />
        </mxCell>
        <mxCell id="wO3dEOBaHigZstkqX0X5-92" value="17" style="text;html=1;align=center;verticalAlign=middle;resizable=0;points=[];autosize=1;strokeColor=none;fillColor=none;" vertex="1" parent="1">
          <mxGeometry x="1615" y="54" width="30" height="20" as="geometry" />
        </mxCell>
        <mxCell id="wO3dEOBaHigZstkqX0X5-93" value="18" style="text;html=1;align=center;verticalAlign=middle;resizable=0;points=[];autosize=1;strokeColor=none;fillColor=none;" vertex="1" parent="1">
          <mxGeometry x="1615" y="120" width="30" height="20" as="geometry" />
        </mxCell>
        <mxCell id="wO3dEOBaHigZstkqX0X5-94" value="19" style="text;html=1;align=center;verticalAlign=middle;resizable=0;points=[];autosize=1;strokeColor=none;fillColor=none;" vertex="1" parent="1">
          <mxGeometry x="1615" y="192" width="30" height="20" as="geometry" />
        </mxCell>
        <mxCell id="wO3dEOBaHigZstkqX0X5-95" value="20" style="text;html=1;align=center;verticalAlign=middle;resizable=0;points=[];autosize=1;strokeColor=none;fillColor=none;" vertex="1" parent="1">
          <mxGeometry x="1615" y="245" width="30" height="20" as="geometry" />
        </mxCell>
        <mxCell id="wO3dEOBaHigZstkqX0X5-96" value="20.1" style="text;html=1;align=center;verticalAlign=middle;resizable=0;points=[];autosize=1;strokeColor=none;fillColor=none;" vertex="1" parent="1">
          <mxGeometry x="1610" y="295" width="40" height="20" as="geometry" />
        </mxCell>
        <mxCell id="wO3dEOBaHigZstkqX0X5-97" value="21" style="text;html=1;align=center;verticalAlign=middle;resizable=0;points=[];autosize=1;strokeColor=none;fillColor=none;" vertex="1" parent="1">
          <mxGeometry x="1615" y="347" width="30" height="20" as="geometry" />
        </mxCell>
        <mxCell id="wO3dEOBaHigZstkqX0X5-98" value="21.1" style="text;html=1;align=center;verticalAlign=middle;resizable=0;points=[];autosize=1;strokeColor=none;fillColor=none;" vertex="1" parent="1">
          <mxGeometry x="1610" y="410" width="40" height="20" as="geometry" />
        </mxCell>
        <mxCell id="wO3dEOBaHigZstkqX0X5-99" value="21.2" style="text;html=1;align=center;verticalAlign=middle;resizable=0;points=[];autosize=1;strokeColor=none;fillColor=none;" vertex="1" parent="1">
          <mxGeometry x="1610" y="470" width="40" height="20" as="geometry" />
        </mxCell>
        <mxCell id="wO3dEOBaHigZstkqX0X5-100" value="22" style="text;html=1;align=center;verticalAlign=middle;resizable=0;points=[];autosize=1;strokeColor=none;fillColor=none;" vertex="1" parent="1">
          <mxGeometry x="1615" y="507" width="30" height="20" as="geometry" />
        </mxCell>
        <mxCell id="wO3dEOBaHigZstkqX0X5-101" value="23" style="text;html=1;align=center;verticalAlign=middle;resizable=0;points=[];autosize=1;strokeColor=none;fillColor=none;" vertex="1" parent="1">
          <mxGeometry x="1615" y="565" width="30" height="20" as="geometry" />
        </mxCell>
      </root>
    </mxGraphModel>
  </diagram>
</mxfile>
